<svg viewBox="0 0 96 96" xmlns="http://www.w3.org/2000/svg" xmlns:xlink="http://www.w3.org/1999/xlink" id="Icons_LeprechaunHat" overflow="hidden"><style>
.MsftOfcThm_Accent6_lumMod_75_Fill {
 fill:#548235; 
}
</style>
<path d="M88 49.5C84.6863 49.5 82 52.1863 82 55.5L82 55.5C82 19.91 81.53 16 48 16 14.47 16 14 21.85 14 55.5L14 55.5C14 52.1863 11.3137 49.5 8 49.5 4.68629 49.5 2 52.1863 2 55.5 2 68.55 23.5 80 48 80 72.5 80 94 68.55 94 55.5 94 52.1863 91.3137 49.5 88 49.5ZM78 57C71.7485 60.2424 64.9812 62.3741 58 63.3L58 66C58 68.2091 56.2091 70 54 70L42 70C39.7909 70 38 68.2091 38 66L38 63.32C31.0175 62.3879 24.2502 60.2494 18 57L18 57C18 54.8133 18 52.74 18 50.78 21.8 52.66 28.37 54.7 38 55.57L38 54C38 51.7909 39.7909 50 42 50L54 50C54.3 50.0002 54.5989 50.0372 54.89 50.11 55.8618 47.3414 57.3403 44.7777 59.25 42.55 57.18 43.6 54.56 44.55 52.71 43.76 50.37 42.76 49.59 37.83 54.71 37.32 51.45 33.32 55.5 30.37 57.85 31.32 60.41 32.38 61.72 36.77 62.24 39.09 61.81 36.71 61.34 32.32 63.24 30.37 65.14 28.42 69.91 29.66 68.49 34.61 73.4 33.05 74.65 37.92 72.88 39.74 71.11 41.56 67 41.39 64.55 41.05 66.91 41.6 71.08 42.91 72.11 45.4 73.14 47.89 70.11 51.8 66.11 48.54 65.6 53.66 60.63 52.89 59.66 50.54 58.81 48.48 60.05 45.47 61.23 43.32 59.1808 45.5489 57.6207 48.182 56.65 51.05 57.4965 51.7985 57.9869 52.8701 58 54L58 55.57C67.62 54.7 74.19 52.66 78 50.78 78 52.74 78 54.8133 78 57Z" class="MsftOfcThm_Accent6_lumMod_75_Fill" fill="#548235"/><rect x="43" y="55" width="10" height="10" class="MsftOfcThm_Accent6_lumMod_75_Fill" fill="#548235"/></svg>